<?xml version="1.0" encoding="UTF-8" standalone="no"?>
<svg
   xmlns:dc="http://purl.org/dc/elements/1.1/"
   xmlns:cc="http://creativecommons.org/ns#"
   xmlns:rdf="http://www.w3.org/1999/02/22-rdf-syntax-ns#"
   xmlns:svg="http://www.w3.org/2000/svg"
   xmlns="http://www.w3.org/2000/svg"
   xmlns:sodipodi="http://sodipodi.sourceforge.net/DTD/sodipodi-0.dtd"
   xmlns:inkscape="http://www.inkscape.org/namespaces/inkscape"
   width="1024"
   height="1024"
   viewBox="0 0 270.93333 270.93334"
   version="1.1"
   id="svg8"
   sodipodi:docname="maroon.svg"
   inkscape:version="1.0 (4035a4fb49, 2020-05-01)">
  <defs
     id="defs2" />
  <sodipodi:namedview
     id="base"
     pagecolor="#ffffff"
     bordercolor="#666666"
     borderopacity="1.0"
     inkscape:pageopacity="0.0"
     inkscape:pageshadow="2"
     inkscape:zoom="0.70710678"
     inkscape:cx="580.21826"
     inkscape:cy="537.13458"
     inkscape:document-units="px"
     inkscape:current-layer="layer1"
     inkscape:document-rotation="0"
     showgrid="false"
     units="px"
     inkscape:window-width="2560"
     inkscape:window-height="1388"
     inkscape:window-x="1672"
     inkscape:window-y="-8"
     inkscape:window-maximized="1" />
  <metadata
     id="metadata5">
    <rdf:RDF>
      <cc:Work
         rdf:about="">
        <dc:format>image/svg+xml</dc:format>
        <dc:type
           rdf:resource="http://purl.org/dc/dcmitype/StillImage" />
        <dc:title></dc:title>
      </cc:Work>
    </rdf:RDF>
  </metadata>
  <g
     inkscape:label="Layer 1"
     inkscape:groupmode="layer"
     id="layer1">
    <g
       transform="translate(3.7040415,8.4666671)"
       id="g848">
      <path
         style="color:#000000;font-style:normal;font-variant:normal;font-weight:normal;font-stretch:normal;font-size:medium;line-height:normal;font-family:sans-serif;font-variant-ligatures:normal;font-variant-position:normal;font-variant-caps:normal;font-variant-numeric:normal;font-variant-alternates:normal;font-variant-east-asian:normal;font-feature-settings:normal;font-variation-settings:normal;text-indent:0;text-align:start;text-decoration:none;text-decoration-line:none;text-decoration-style:solid;text-decoration-color:#000000;letter-spacing:normal;word-spacing:normal;text-transform:none;writing-mode:lr-tb;direction:ltr;text-orientation:mixed;dominant-baseline:auto;baseline-shift:baseline;text-anchor:start;white-space:normal;shape-padding:0;shape-margin:0;inline-size:0;clip-rule:nonzero;display:inline;overflow:visible;visibility:visible;opacity:0.5;isolation:auto;mix-blend-mode:normal;color-interpolation:sRGB;color-interpolation-filters:linearRGB;solid-color:#000000;solid-opacity:1;vector-effect:none;fill:#000000;fill-opacity:1;fill-rule:evenodd;stroke:none;stroke-width:8.46667;stroke-linecap:butt;stroke-linejoin:bevel;stroke-miterlimit:4;stroke-dasharray:none;stroke-dashoffset:0;stroke-opacity:1;color-rendering:auto;image-rendering:auto;shape-rendering:auto;text-rendering:auto;enable-background:accumulate;stop-color:#000000;stop-opacity:1"
         d="m 69.54878,166.40251 c -5.525101,0 -10.557558,3.66098 -14.729841,6.97209 -4.172282,3.3111 -7.297617,6.6081 -7.297617,6.6081 l 4.317035,4.10002 c 0,0 2.882811,-3.02834 6.682272,-6.04358 3.799461,-3.01524 8.701239,-5.68234 11.028151,-5.68234 2.326913,0 4.772613,2.23622 7.776983,5.39939 3.00437,3.16317 6.567543,7.25367 12.092645,7.25367 5.525102,0 9.089648,-4.0905 12.094022,-7.25367 3.00437,-3.16317 5.44868,-5.39939 7.77558,-5.39939 2.3269,0 4.77123,2.23622 7.7756,5.39939 3.00438,3.16317 6.56892,7.25367 12.09403,7.25367 5.5251,0 9.08827,-4.0905 12.09264,-7.25367 3.00437,-3.16317 5.45007,-5.39939 7.77698,-5.39939 2.32691,0 4.77124,2.23622 7.77561,5.39939 3.00437,3.16317 6.56892,7.25367 12.09402,7.25367 5.5251,0 9.08827,-4.0905 12.09264,-7.25367 3.00437,-3.16317 5.45007,-5.39939 7.77699,-5.39939 2.32691,0 7.22869,2.6671 11.02815,5.68234 3.79946,3.01524 6.68227,6.04358 6.68227,6.04358 l 4.31703,-4.10002 c 0,0 -3.12533,-3.297 -7.29761,-6.6081 -4.17229,-3.31111 -9.20474,-6.97209 -14.72984,-6.97209 -5.5251,0 -9.08965,4.09049 -12.09402,7.25367 -3.00437,3.16316 -5.4487,5.39938 -7.77561,5.39938 -2.32691,0 -4.77262,-2.23622 -7.77698,-5.39938 -3.00437,-3.16318 -6.56755,-7.25367 -12.09265,-7.25367 -5.5251,0 -9.08964,4.09049 -12.09402,7.25367 -3.00437,3.16316 -5.44869,5.39938 -7.7756,5.39938 -2.32692,0 -4.77125,-2.23622 -7.77561,-5.39938 -3.00438,-3.16318 -6.56892,-7.25367 -12.09402,-7.25367 -5.52508,0 -9.08825,4.09049 -12.09262,7.25367 -3.00437,3.16316 -5.450069,5.39938 -7.776982,5.39938 -2.326913,0 -4.771239,-2.23622 -7.775609,-5.39938 -3.00437,-3.16318 -6.568916,-7.25367 -12.094019,-7.25367 z"
         id="path1495" />
      <path
         id="path1493"
         d="m 74.758712,161.19255 c -5.525102,0 -10.557559,3.66098 -14.729841,6.97209 -4.172283,3.3111 -7.297618,6.6081 -7.297618,6.6081 l 4.317036,4.10001 c 0,0 2.88281,-3.02833 6.682272,-6.04357 3.799461,-3.01524 8.701238,-5.68234 11.028151,-5.68234 2.326913,0 4.772612,2.23622 7.776983,5.39939 3.00437,3.16317 6.567542,7.25366 12.092644,7.25366 5.525101,0 9.089651,-4.09049 12.094021,-7.25366 3.00437,-3.16317 5.44869,-5.39939 7.77561,-5.39939 2.3269,0 4.77123,2.23622 7.7756,5.39939 3.00438,3.16317 6.56892,7.25366 12.09403,7.25366 5.5251,0 9.08827,-4.09049 12.09264,-7.25366 3.00437,-3.16317 5.45007,-5.39939 7.77698,-5.39939 2.32691,0 4.77124,2.23622 7.77561,5.39939 3.00437,3.16317 6.56892,7.25366 12.09402,7.25366 5.5251,0 9.08827,-4.09049 12.09264,-7.25366 3.00437,-3.16317 5.45007,-5.39939 7.77699,-5.39939 2.32691,0 7.22869,2.6671 11.02815,5.68234 3.79946,3.01524 6.68227,6.04357 6.68227,6.04357 l 4.31703,-4.10001 c 0,0 -3.12533,-3.297 -7.29761,-6.6081 -4.17229,-3.31111 -9.20474,-6.97209 -14.72984,-6.97209 -5.5251,0 -9.08965,4.09049 -12.09402,7.25366 -3.00437,3.16317 -5.4487,5.39939 -7.77561,5.39939 -2.32691,0 -4.77262,-2.23622 -7.77698,-5.39939 -3.00437,-3.16317 -6.56755,-7.25366 -12.09265,-7.25366 -5.5251,0 -9.08964,4.09049 -12.09402,7.25366 -3.00437,3.16317 -5.44869,5.39939 -7.7756,5.39939 -2.32692,0 -4.77125,-2.23622 -7.77561,-5.39939 -3.00437,-3.16317 -6.56892,-7.25366 -12.09402,-7.25366 -5.52511,0 -9.08828,4.09049 -12.09265,7.25366 -3.004368,3.16317 -5.450068,5.39939 -7.776981,5.39939 -2.326912,0 -4.771238,-2.23622 -7.775609,-5.39939 -3.00437,-3.16317 -6.568916,-7.25366 -12.094018,-7.25366 z"
         style="color:#000000;font-style:normal;font-variant:normal;font-weight:normal;font-stretch:normal;font-size:medium;line-height:normal;font-family:sans-serif;font-variant-ligatures:normal;font-variant-position:normal;font-variant-caps:normal;font-variant-numeric:normal;font-variant-alternates:normal;font-variant-east-asian:normal;font-feature-settings:normal;font-variation-settings:normal;text-indent:0;text-align:start;text-decoration:none;text-decoration-line:none;text-decoration-style:solid;text-decoration-color:#000000;letter-spacing:normal;word-spacing:normal;text-transform:none;writing-mode:lr-tb;direction:ltr;text-orientation:mixed;dominant-baseline:auto;baseline-shift:baseline;text-anchor:start;white-space:normal;shape-padding:0;shape-margin:0;inline-size:0;clip-rule:nonzero;display:inline;overflow:visible;visibility:visible;opacity:1;isolation:auto;mix-blend-mode:normal;color-interpolation:sRGB;color-interpolation-filters:linearRGB;solid-color:#000000;solid-opacity:1;vector-effect:none;fill:#ffffff;fill-opacity:1;fill-rule:evenodd;stroke:none;stroke-width:8.46667;stroke-linecap:butt;stroke-linejoin:bevel;stroke-miterlimit:4;stroke-dasharray:none;stroke-dashoffset:0;stroke-opacity:1;color-rendering:auto;image-rendering:auto;shape-rendering:auto;text-rendering:auto;enable-background:accumulate;stop-color:#000000;stop-opacity:1" />
      <path
         id="path1497"
         style="opacity:0.5;vector-effect:none;fill:#000000;fill-opacity:1;fill-rule:evenodd;stroke:none;stroke-width:2.40771;stroke-linecap:round;stroke-linejoin:miter;stroke-miterlimit:4;stroke-dasharray:none;stroke-dashoffset:0;stroke-opacity:1"
         d="m 165.32572,60.681943 -23.2747,-6.183763 -1.38583,5.12848 -4.80205,-1.275794 -2.73705,10.127779 4.8024,1.275887 -6.60107,24.426284 a 14.553244,14.553244 0 0 0 -0.18216,-0.05032 14.553244,14.553244 0 0 0 -17.82369,10.290524 14.553244,14.553244 0 0 0 -0.002,0.008 l -0.006,0.004 -16.982629,62.84238 c 0.271093,-0.27808 0.524394,-0.51805 0.804862,-0.81334 0.751093,-0.7908 1.537017,-1.63946 2.37988,-2.46776 0.421431,-0.41416 0.857037,-0.82311 1.309637,-1.21724 0.45259,-0.39413 0.92212,-0.77339 1.41136,-1.1279 0.48925,-0.3545 0.99827,-0.68429 1.52964,-0.97957 0.53137,-0.29528 1.08523,-0.55626 1.6642,-0.7727 0.57898,-0.21646 1.18316,-0.38848 1.81522,-0.5065 0.31604,-0.059 0.63889,-0.10424 0.96922,-0.13497 0.33034,-0.0307 0.66809,-0.0471 1.01341,-0.0471 0.34531,1e-5 0.68307,0.0162 1.01342,0.0469 0.33035,0.0307 0.65304,0.0761 0.96909,0.13513 0.63211,0.11805 1.23669,0.29039 1.81573,0.50684 0.57905,0.21646 1.13294,0.47727 1.6644,0.77255 0.53144,0.29528 1.04023,0.62496 1.52956,0.97946 0.48933,0.35451 0.9588,0.73392 1.41149,1.12805 0.45267,0.39414 0.88872,0.80264 1.31021,1.21679 0.843,0.8283 1.62871,1.67726 2.3798,2.46806 0.7511,0.79077 1.46764,1.52401 2.15565,2.17848 0.688,0.65446 1.34772,1.2304 1.98647,1.70763 0.31937,0.23862 0.63325,0.45204 0.9429,0.63867 0.30964,0.18663 0.6149,0.34631 0.91655,0.47585 0.30166,0.12954 0.59994,0.22936 0.89533,0.29671 0.2954,0.0673 0.58815,0.10197 0.87903,0.10197 0.29085,0 0.58336,-0.0347 0.87875,-0.10202 0.2954,-0.0673 0.59351,-0.16712 0.89517,-0.29666 0.30166,-0.12953 0.60712,-0.28896 0.91678,-0.47559 0.30965,-0.18663 0.62351,-0.40043 0.94288,-0.63903 0.63875,-0.47722 1.29897,-1.05324 1.98698,-1.7077 0.688,-0.65446 1.4037,-1.38738 2.1548,-2.17817 0.75109,-0.7908 1.53733,-1.63971 2.38032,-2.46803 0.4215,-0.41415 0.85731,-0.82301 1.30999,-1.21714 0.45268,-0.39412 0.92203,-0.77338 1.41136,-1.12789 0.48934,-0.35451 0.99854,-0.6842 1.52999,-0.97948 0.53145,-0.29528 1.08551,-0.55616 1.66456,-0.77261 0.57904,-0.21646 1.18313,-0.38847 1.81523,-0.5065 0.31606,-0.059 0.63933,-0.1045 0.96968,-0.13522 0.33033,-0.0307 0.66764,-0.0469 1.01296,-0.0469 0.34532,1e-5 0.68308,0.0162 1.01342,0.0469 0.33034,0.0307 0.65351,0.0759 0.96954,0.13488 0.63207,0.11803 1.23604,0.2902 1.81503,0.50665 0.30693,0.11471 0.58912,0.27166 0.8823,0.40985 l 11.38614,-42.13274 -7.1e-4,-10e-4 a 14.553244,14.553244 0 0 0 -10.29124,-17.82242 14.553244,14.553244 0 0 0 -0.12646,-0.0335 l 6.58782,-24.378286 4.8025,1.275537 2.7366,-10.127522 -4.80204,-1.275793 z" />
      <path
         d="m 158.91732,162.29064 c -0.29319,-0.13819 -0.57544,-0.29482 -0.88237,-0.40956 -0.57898,-0.21646 -1.18283,-0.38858 -1.8149,-0.50661 -0.31603,-0.059 -0.63926,-0.10446 -0.96959,-0.13519 -0.33033,-0.0307 -0.66788,-0.0469 -1.0132,-0.0469 -0.34532,0 -0.68286,0.0162 -1.01321,0.0469 -0.33034,0.0307 -0.65354,0.0762 -0.96959,0.13519 -0.63211,0.11803 -1.23622,0.29015 -1.81526,0.50661 -0.57904,0.21645 -1.13299,0.47734 -1.66445,0.77262 -0.53145,0.29528 -1.04065,0.6249 -1.52998,0.9794 -0.48933,0.35451 -0.95882,0.73392 -1.4115,1.12804 -0.45268,0.39413 -0.88826,0.80293 -1.30975,1.21708 -0.843,0.82831 -1.62928,1.67717 -2.38038,2.46796 -0.75109,0.79079 -1.46705,1.52385 -2.15505,2.17831 -0.688,0.65447 -1.34805,1.23047 -1.9868,1.7077 -0.31937,0.23861 -0.63341,0.45225 -0.94306,0.63888 -0.30965,0.18663 -0.61487,0.34618 -0.91653,0.47571 -0.30166,0.12954 -0.5997,0.22922 -0.8951,0.29655 -0.29539,0.0673 -0.58823,0.10212 -0.8791,0.10212 -0.29086,0 -0.58334,-0.0348 -0.87874,-0.10212 -0.2954,-0.0673 -0.59379,-0.16701 -0.89546,-0.29655 -0.30166,-0.12953 -0.60688,-0.28908 -0.91653,-0.47571 -0.30965,-0.18663 -0.62369,-0.40027 -0.94306,-0.63888 -0.63875,-0.47723 -1.29843,-1.05323 -1.98643,-1.7077 -0.68801,-0.65446 -1.40433,-1.38752 -2.15542,-2.17831 -0.7511,-0.79079 -1.53702,-1.63965 -2.38001,-2.46796 -0.4215,-0.41415 -0.85744,-0.82295 -1.31012,-1.21708 -0.45268,-0.39412 -0.92217,-0.77353 -1.4115,-1.12804 -0.48933,-0.3545 -0.99817,-0.68412 -1.52962,-0.9794 -0.53145,-0.29528 -1.0854,-0.55617 -1.66444,-0.77262 -0.57905,-0.21646 -1.18352,-0.38858 -1.81563,-0.50661 -0.31605,-0.059 -0.63889,-0.10446 -0.96923,-0.13519 -0.33034,-0.0307 -0.66788,-0.0469 -1.0132,-0.0469 -0.34532,0 -0.68323,0.0162 -1.01357,0.0469 -0.33033,0.0307 -0.65319,0.0762 -0.96923,0.13519 -0.63207,0.11803 -1.23628,0.29015 -1.81526,0.50661 -0.57898,0.21645 -1.13271,0.47734 -1.66408,0.77262 -0.53137,0.29528 -1.04037,0.6249 -1.52962,0.9794 -0.48924,0.35451 -0.95891,0.73392 -1.4115,1.12804 -0.4526,0.39413 -0.88796,0.80293 -1.30939,1.21708 -0.84287,0.82831 -1.62892,1.67717 -2.38001,2.46796 -0.28047,0.2953 -0.53388,0.53525 -0.80497,0.81332 l -1.662987,6.15409 3.090487,0.82095 c 0.001,-0.001 0.003,-0.002 0.004,-0.003 0.45268,-0.39413 0.88826,-0.80293 1.30975,-1.21708 0.843,-0.82831 1.62928,-1.67717 2.38038,-2.46796 0.75109,-0.79079 1.46705,-1.52348 2.15505,-2.17795 0.688,-0.65447 1.34805,-1.23083 1.9868,-1.70805 0.31937,-0.23862 0.63341,-0.45226 0.94306,-0.63889 0.30965,-0.18663 0.61487,-0.34617 0.91654,-0.47571 0.30166,-0.12953 0.59969,-0.22922 0.89509,-0.29655 0.2954,-0.0673 0.58824,-0.10212 0.8791,-0.10212 0.29086,0 0.58334,0.0348 0.87874,0.10212 0.2954,0.0673 0.59343,0.16702 0.89509,0.29655 0.30166,0.12954 0.60689,0.28908 0.91654,0.47571 0.30965,0.18663 0.62369,0.40027 0.94306,0.63889 0.63875,0.47722 1.29879,1.05358 1.98679,1.70805 0.68801,0.65447 1.40433,1.38716 2.15542,2.17795 0.7511,0.79079 1.53702,1.63965 2.38001,2.46796 0.4215,0.41415 0.85708,0.82295 1.30975,1.21708 0.45268,0.39413 0.92254,0.77353 1.41187,1.12804 0.48933,0.3545 0.99817,0.68413 1.52962,0.97941 0.53145,0.29528 1.0854,0.55616 1.66444,0.77262 0.57905,0.21645 1.18316,0.38857 1.81527,0.5066 0.31605,0.059 0.63925,0.10446 0.96959,0.13519 0.33034,0.0307 0.66788,0.0469 1.0132,0.0469 0.34532,0 0.68323,-0.0161 1.01357,-0.0469 0.33033,-0.0307 0.65319,-0.0762 0.96923,-0.13519 0.63207,-0.11803 1.23628,-0.29015 1.81526,-0.5066 0.57898,-0.21646 1.13271,-0.47734 1.66408,-0.77262 0.53137,-0.29528 1.04037,-0.62491 1.52962,-0.97941 0.48924,-0.35451 0.95891,-0.73391 1.41151,-1.12804 0.45259,-0.39413 0.88795,-0.80293 1.30938,-1.21708 0.84287,-0.82831 1.62892,-1.67717 2.38001,-2.46796 0.75109,-0.79079 1.46729,-1.52348 2.15542,-2.17795 0.68813,-0.65447 1.34824,-1.23083 1.98716,-1.70805 0.31946,-0.23862 0.63369,-0.45226 0.94343,-0.63889 0.30973,-0.18663 0.61517,-0.34617 0.91689,-0.47571 0.30173,-0.12953 0.59966,-0.22922 0.8951,-0.29655 0.29543,-0.0673 0.58824,-0.10212 0.8791,-0.10212 0.29086,0 0.5837,0.0348 0.8791,0.10212 0.2954,0.0673 0.59343,0.16702 0.8951,0.29655 0.30166,0.12954 0.60688,0.28908 0.91653,0.47571 0.12234,0.0737 0.24872,0.17048 0.3725,0.25258 z"
         style="opacity:1;vector-effect:none;fill:#ffffff;fill-opacity:1;fill-rule:evenodd;stroke:none;stroke-width:2.40771;stroke-linecap:round;stroke-linejoin:miter;stroke-miterlimit:4;stroke-dasharray:none;stroke-dashoffset:0;stroke-opacity:1"
         id="path896" />
      <path
         d="m 170.53568,55.472011 -23.2747,-6.183763 -1.38583,5.12848 -4.80205,-1.275794 -2.73705,10.127779 4.8024,1.275888 -6.60107,24.426283 a 14.553244,14.553244 0 0 0 -0.18216,-0.05032 14.553244,14.553244 0 0 0 -17.82369,10.290515 14.553244,14.553244 0 0 0 -0.002,0.0081 l -0.006,0.0035 -16.98266,62.842351 c 0.2711,-0.27807 0.5244,-0.51805 0.80486,-0.81334 0.7511,-0.79079 1.53702,-1.63945 2.37988,-2.46776 0.42144,-0.41415 0.85704,-0.82311 1.30964,-1.21724 0.45259,-0.39413 0.92212,-0.77339 1.41136,-1.1279 0.48925,-0.3545 0.99827,-0.68429 1.52964,-0.97957 0.53137,-0.29527 1.08523,-0.55625 1.6642,-0.7727 0.57899,-0.21646 1.18317,-0.38847 1.81524,-0.50649 0.31603,-0.059 0.63889,-0.10425 0.96922,-0.13497 0.33034,-0.0307 0.6681,-0.0471 1.01342,-0.0471 0.34532,1e-5 0.68307,0.0162 1.01342,0.0469 0.33035,0.0307 0.65304,0.0761 0.9691,0.13513 0.6321,0.11804 1.23668,0.29038 1.81572,0.50684 0.57905,0.21646 1.13294,0.47727 1.6644,0.77254 0.53144,0.29528 1.04023,0.62497 1.52956,0.97947 0.48933,0.35451 0.9588,0.73391 1.41149,1.12804 0.45267,0.39414 0.88872,0.80264 1.31021,1.21679 0.843,0.82831 1.62871,1.67726 2.3798,2.46806 0.7511,0.79078 1.46764,1.52402 2.15565,2.17849 0.688,0.65446 1.34772,1.2304 1.98647,1.70763 0.31937,0.23861 0.63325,0.45203 0.9429,0.63866 0.30965,0.18663 0.6149,0.34631 0.91655,0.47585 0.30166,0.12954 0.59994,0.22936 0.89533,0.29671 0.29541,0.0673 0.58816,0.10197 0.87903,0.10197 0.29086,1e-5 0.58336,-0.0347 0.87875,-0.10202 0.2954,-0.0673 0.59351,-0.16711 0.89517,-0.29665 0.30166,-0.12953 0.60712,-0.28897 0.91678,-0.4756 0.30965,-0.18663 0.62351,-0.40042 0.94288,-0.63903 0.63875,-0.47722 1.29897,-1.05323 1.98698,-1.70769 0.68801,-0.65447 1.40371,-1.38739 2.1548,-2.17818 0.75109,-0.79079 1.53733,-1.63971 2.38032,-2.46802 0.4215,-0.41415 0.85731,-0.82301 1.30999,-1.21714 0.45268,-0.39412 0.92203,-0.77339 1.41136,-1.1279 0.48934,-0.3545 0.99855,-0.68419 1.52999,-0.97947 0.53145,-0.29529 1.08552,-0.55616 1.66456,-0.77262 0.57904,-0.21645 1.18313,-0.38846 1.81523,-0.50649 0.31606,-0.059 0.63933,-0.1045 0.96968,-0.13523 0.33034,-0.0307 0.66764,-0.0469 1.01296,-0.0469 0.34532,0 0.68308,0.0162 1.01342,0.0469 0.33034,0.0307 0.65351,0.0759 0.96954,0.13488 0.63207,0.11803 1.23604,0.2902 1.81503,0.50665 0.30693,0.11472 0.58912,0.27166 0.8823,0.40986 l 11.38614,-42.13274 -7e-4,-0.001 a 14.553244,14.553244 0 0 0 -10.29125,-17.822386 14.553244,14.553244 0 0 0 -0.12646,-0.03351 l 6.58782,-24.378286 4.8025,1.275538 2.73661,-10.127523 -4.80205,-1.275793 z"
         style="opacity:1;vector-effect:none;fill:#ffffff;fill-opacity:1;fill-rule:evenodd;stroke:none;stroke-width:2.40771;stroke-linecap:round;stroke-linejoin:miter;stroke-miterlimit:4;stroke-dasharray:none;stroke-dashoffset:0;stroke-opacity:1"
         id="path894" />
    </g>
  </g>
</svg>
